<svg width="1920" height="985" xmlns="http://www.w3.org/2000/svg"><g><path d="M-35,-126L-131,105L26,-115Z" fill="#fffff0" stroke="#fffff0"/><path d="M-35,-126L26,-115L259,-100Z" fill="#fcfee5" stroke="#fcfee5"/><path d="M-35,-126L259,-100L565,-123Z" fill="#f4fbd8" stroke="#f4fbd8"/><path d="M26,-115L-131,105L103,104Z" fill="#ffffe7" stroke="#ffffe7"/><path d="M26,-115L103,104L190,32Z" fill="#fbfee2" stroke="#fbfee2"/><path d="M26,-115L190,32L259,-100Z" fill="#f9fddf" stroke="#f9fddf"/><path d="M259,-100L190,32L389,99Z" fill="#f3fbd6" stroke="#f3fbd6"/><path d="M259,-100L389,99L368,-97Z" fill="#eef9d9" stroke="#eef9d9"/><path d="M259,-100L368,-97L565,-123Z" fill="#eaf7d9" stroke="#eaf7d9"/><path d="M368,-97L389,99L527,119Z" fill="#e7f6d2" stroke="#e7f6d2"/><path d="M368,-97L527,119L565,-123Z" fill="#e2f4da" stroke="#e2f4da"/><path d="M565,-123L527,119L618,78Z" fill="#d6efd7" stroke="#d6efd7"/><path d="M565,-123L618,78L673,-64Z" fill="#ceecdc" stroke="#ceecdc"/><path d="M565,-123L673,-64L833,-70Z" fill="#c4e8dd" stroke="#c4e8dd"/><path d="M565,-123L833,-70L1219,-115Z" fill="#acdfe0" stroke="#acdfe0"/><path d="M673,-64L618,78L793,84Z" fill="#c3e8d7" stroke="#c3e8d7"/><path d="M673,-64L793,84L833,-70Z" fill="#b9e4de" stroke="#b9e4de"/><path d="M833,-70L793,84L1007,108Z" fill="#abdfd9" stroke="#abdfd9"/><path d="M833,-70L1007,108L1021,-31Z" fill="#a1dbe1" stroke="#a1dbe1"/><path d="M833,-70L1021,-31L1219,-115Z" fill="#9bd6e1" stroke="#9bd6e1"/><path d="M1021,-31L1007,108L1084,55Z" fill="#9ad5d9" stroke="#9ad5d9"/><path d="M1021,-31L1084,55L1128,-22Z" fill="#97d2e1" stroke="#97d2e1"/><path d="M1021,-31L1128,-22L1219,-115Z" fill="#94cee0" stroke="#94cee0"/><path d="M1128,-22L1084,55L1266,58Z" fill="#91cbdb" stroke="#91cbdb"/><path d="M1128,-22L1266,58L1219,-115Z" fill="#8ec8e0" stroke="#8ec8e0"/><path d="M1219,-115L1266,58L1445,-48Z" fill="#8fbdda" stroke="#8fbdda"/><path d="M1219,-115L1445,-48L1546,-61Z" fill="#90b3d6" stroke="#90b3d6"/><path d="M1219,-115L1546,-61L1973,-100Z" fill="#8aa0c9" stroke="#8aa0c9"/><path d="M1445,-48L1266,58L1429,47Z" fill="#90b5d3" stroke="#90b5d3"/><path d="M1445,-48L1429,47L1546,-61Z" fill="#8fabd1" stroke="#8fabd1"/><path d="M1546,-61L1429,47L1586,48Z" fill="#8da6cc" stroke="#8da6cc"/><path d="M1546,-61L1586,48L1774,-43Z" fill="#889ac5" stroke="#889ac5"/><path d="M1546,-61L1774,-43L1973,-100Z" fill="#828dbb" stroke="#828dbb"/><path d="M1774,-43L1586,48L1775,93Z" fill="#8492b9" stroke="#8492b9"/><path d="M1774,-43L1775,93L1822,25Z" fill="#818ab5" stroke="#818ab5"/><path d="M1774,-43L1822,25L1927,-38Z" fill="#8085b6" stroke="#8085b6"/><path d="M1774,-43L1927,-38L1973,-100Z" fill="#8080b2" stroke="#8080b2"/><path d="M1927,-38L1822,25L1891,171Z" fill="#8081a9" stroke="#8081a9"/><path d="M1927,-38L1891,171L2036,129Z" fill="#80809e" stroke="#80809e"/><path d="M1927,-38L2036,129L1973,-100Z" fill="#8080ab" stroke="#8080ab"/><path d="M1973,-100L2036,129L2080,184Z" fill="#80809b" stroke="#80809b"/><path d="M-131,105L-102,981L-74,770Z" fill="#91d5e7" stroke="#91d5e7"/><path d="M-131,105L-74,770L-103,228Z" fill="#ccfae5" stroke="#ccfae5"/><path d="M-131,105L-103,228L32,201Z" fill="#fbffdd" stroke="#fbffdd"/><path d="M-131,105L32,201L103,104Z" fill="#feffd6" stroke="#feffd6"/><path d="M103,104L32,201L239,247Z" fill="#f6fdcd" stroke="#f6fdcd"/><path d="M103,104L239,247L190,32Z" fill="#f8fdc7" stroke="#f8fdc7"/><path d="M190,32L239,247L389,99Z" fill="#f4fbc2" stroke="#f4fbc2"/><path d="M389,99L239,247L417,263Z" fill="#e8f8c4" stroke="#e8f8c4"/><path d="M389,99L417,263L527,119Z" fill="#e4f5c4" stroke="#e4f5c4"/><path d="M527,119L417,263L571,202Z" fill="#dbf3c5" stroke="#dbf3c5"/><path d="M527,119L571,202L618,78Z" fill="#d5efc5" stroke="#d5efc5"/><path d="M618,78L571,202L658,277Z" fill="#caecc7" stroke="#caecc7"/><path d="M618,78L658,277L793,84Z" fill="#c2e8c7" stroke="#c2e8c7"/><path d="M793,84L658,277L852,237Z" fill="#b4e4c9" stroke="#b4e4c9"/><path d="M793,84L852,237L1007,108Z" fill="#a9decb" stroke="#a9decb"/><path d="M1007,108L852,237L973,276Z" fill="#9cdccd" stroke="#9cdccd"/><path d="M1007,108L973,276L1125,230Z" fill="#95d5cd" stroke="#95d5cd"/><path d="M1007,108L1125,230L1084,55Z" fill="#97d2cb" stroke="#97d2cb"/><path d="M1084,55L1125,230L1266,58Z" fill="#91cbcc" stroke="#91cbcc"/><path d="M1266,58L1125,230L1257,270Z" fill="#8ac7ca" stroke="#8ac7ca"/><path d="M1266,58L1257,270L1435,210Z" fill="#8bbcc5" stroke="#8bbcc5"/><path d="M1266,58L1435,210L1429,47Z" fill="#90b5c4" stroke="#90b5c4"/><path d="M1429,47L1435,210L1593,180Z" fill="#8daabb" stroke="#8daabb"/><path d="M1429,47L1593,180L1586,48Z" fill="#8ca5bc" stroke="#8ca5bc"/><path d="M1586,48L1593,180L1775,93Z" fill="#8799b1" stroke="#8799b1"/><path d="M1775,93L1593,180L1783,235Z" fill="#8192aa" stroke="#8192aa"/><path d="M1775,93L1783,235L1891,171Z" fill="#7d88a2" stroke="#7d88a2"/><path d="M1775,93L1891,171L1822,25Z" fill="#8086a6" stroke="#8086a6"/><path d="M2036,129L1891,171L2080,184Z" fill="#7d8094" stroke="#7d8094"/><path d="M-103,228L-74,770L-47,371Z" fill="#b1f0e6" stroke="#b1f0e6"/><path d="M-103,228L-47,371L16,333Z" fill="#e0fdde" stroke="#e0fdde"/><path d="M-103,228L16,333L32,201Z" fill="#f4ffda" stroke="#f4ffda"/><path d="M32,201L16,333L239,247Z" fill="#eefdd1" stroke="#eefdd1"/><path d="M239,247L16,333L237,325Z" fill="#ddfacd" stroke="#ddfacd"/><path d="M239,247L237,325L417,263Z" fill="#def8c6" stroke="#def8c6"/><path d="M417,263L237,325L337,417Z" fill="#c7f5c8" stroke="#c7f5c8"/><path d="M417,263L337,417L538,318Z" fill="#c0f2c8" stroke="#c0f2c8"/><path d="M417,263L538,318L571,202Z" fill="#d1f2c7" stroke="#d1f2c7"/><path d="M571,202L538,318L658,277Z" fill="#c3edc8" stroke="#c3edc8"/><path d="M658,277L538,318L628,370Z" fill="#adeaca" stroke="#adeaca"/><path d="M658,277L628,370L827,324Z" fill="#9ee4cc" stroke="#9ee4cc"/><path d="M658,277L827,324L852,237Z" fill="#a3e2cb" stroke="#a3e2cb"/><path d="M852,237L827,324L973,276Z" fill="#96ddcd" stroke="#96ddcd"/><path d="M973,276L827,324L941,383Z" fill="#81d9cf" stroke="#81d9cf"/><path d="M973,276L941,383L1098,383Z" fill="#70d3d1" stroke="#70d3d1"/><path d="M973,276L1098,383L1125,230Z" fill="#7ed1ce" stroke="#7ed1ce"/><path d="M1125,230L1098,383L1232,341Z" fill="#70c9cf" stroke="#70c9cf"/><path d="M1125,230L1232,341L1257,270Z" fill="#79c6cd" stroke="#79c6cd"/><path d="M1257,270L1232,341L1391,360Z" fill="#6bbbca" stroke="#6bbbca"/><path d="M1257,270L1391,360L1435,210Z" fill="#7bb6c5" stroke="#7bb6c5"/><path d="M1435,210L1391,360L1543,379Z" fill="#6faac1" stroke="#6faac1"/><path d="M1435,210L1543,379L1593,180Z" fill="#80a6ba" stroke="#80a6ba"/><path d="M1593,180L1543,379L1717,427Z" fill="#6399b5" stroke="#6399b5"/><path d="M1593,180L1717,427L1783,235Z" fill="#7092ad" stroke="#7092ad"/><path d="M1783,235L1717,427L1878,337Z" fill="#5987a8" stroke="#5987a8"/><path d="M1783,235L1878,337L1891,171Z" fill="#7684a1" stroke="#7684a1"/><path d="M1891,171L1878,337L1978,377Z" fill="#667e9e" stroke="#667e9e"/><path d="M1891,171L1978,377L2080,184Z" fill="#778097" stroke="#778097"/><path d="M2080,184L1978,377L2004,513Z" fill="#507b98" stroke="#507b98"/><path d="M2080,184L2004,513L2081,873Z" fill="#21679b" stroke="#21679b"/><path d="M-47,371L-74,770L-20,474Z" fill="#9ee4e5" stroke="#9ee4e5"/><path d="M-47,371L-20,474L16,333Z" fill="#c4f8df" stroke="#c4f8df"/><path d="M16,333L-20,474L113,518Z" fill="#b4f2dc" stroke="#b4f2dc"/><path d="M16,333L113,518L237,325Z" fill="#c0f6d3" stroke="#c0f6d3"/><path d="M237,325L113,518L199,571Z" fill="#a6ecd2" stroke="#a6ecd2"/><path d="M237,325L199,571L337,417Z" fill="#aceecb" stroke="#aceecb"/><path d="M337,417L199,571L358,560Z" fill="#95e3ce" stroke="#95e3ce"/><path d="M337,417L358,560L469,547Z" fill="#8fe1ce" stroke="#8fe1ce"/><path d="M337,417L469,547L538,318Z" fill="#a0eacc" stroke="#a0eacc"/><path d="M538,318L469,547L628,370Z" fill="#99e6cd" stroke="#99e6cd"/><path d="M628,370L469,547L682,508Z" fill="#7fddd0" stroke="#7fddd0"/><path d="M628,370L682,508L827,324Z" fill="#83decf" stroke="#83decf"/><path d="M827,324L682,508L865,494Z" fill="#6cd5d2" stroke="#6cd5d2"/><path d="M827,324L865,494L941,383Z" fill="#6dd6d2" stroke="#6dd6d2"/><path d="M941,383L865,494L937,553Z" fill="#52ccd6" stroke="#52ccd6"/><path d="M941,383L937,553L1072,479Z" fill="#4cc8d6" stroke="#4cc8d6"/><path d="M941,383L1072,479L1098,383Z" fill="#59cbd3" stroke="#59cbd3"/><path d="M1098,383L1072,479L1312,505Z" fill="#43bcd4" stroke="#43bcd4"/><path d="M1098,383L1312,505L1232,341Z" fill="#4ebdd1" stroke="#4ebdd1"/><path d="M1232,341L1312,505L1391,360Z" fill="#51b4cc" stroke="#51b4cc"/><path d="M1391,360L1312,505L1440,534Z" fill="#3fa5cb" stroke="#3fa5cb"/><path d="M1391,360L1440,534L1543,379Z" fill="#4ba2c5" stroke="#4ba2c5"/><path d="M1543,379L1440,534L1528,560Z" fill="#3595c4" stroke="#3595c4"/><path d="M1543,379L1528,560L1682,468Z" fill="#388fbd" stroke="#388fbd"/><path d="M1543,379L1682,468L1717,427Z" fill="#438eb7" stroke="#438eb7"/><path d="M1717,427L1682,468L1846,475Z" fill="#3580b1" stroke="#3580b1"/><path d="M1717,427L1846,475L1878,337Z" fill="#3f7eaa" stroke="#3f7eaa"/><path d="M1878,337L1846,475L1978,377Z" fill="#4478a2" stroke="#4478a2"/><path d="M1978,377L1846,475L2004,513Z" fill="#3271a2" stroke="#3271a2"/><path d="M-20,474L-74,770L-25,683Z" fill="#92d0e0" stroke="#92d0e0"/><path d="M-20,474L-25,683L104,638Z" fill="#94d9de" stroke="#94d9de"/><path d="M-20,474L104,638L113,518Z" fill="#9be2db" stroke="#9be2db"/><path d="M113,518L104,638L181,625Z" fill="#90d8d5" stroke="#90d8d5"/><path d="M113,518L181,625L199,571Z" fill="#93dcd3" stroke="#93dcd3"/><path d="M199,571L181,625L373,675Z" fill="#87d0ca" stroke="#87d0ca"/><path d="M199,571L373,675L358,560Z" fill="#85d3cc" stroke="#85d3cc"/><path d="M358,560L373,675L482,648Z" fill="#7bcbcb" stroke="#7bcbcb"/><path d="M358,560L482,648L469,547Z" fill="#7ed2cd" stroke="#7ed2cd"/><path d="M469,547L482,648L659,622Z" fill="#6ecace" stroke="#6ecace"/><path d="M469,547L659,622L682,508Z" fill="#6cced0" stroke="#6cced0"/><path d="M682,508L659,622L798,681Z" fill="#54c0d0" stroke="#54c0d0"/><path d="M682,508L798,681L865,494Z" fill="#53c4d2" stroke="#53c4d2"/><path d="M865,494L798,681L937,553Z" fill="#45bdd4" stroke="#45bdd4"/><path d="M937,553L798,681L965,633Z" fill="#3ab3d3" stroke="#3ab3d3"/><path d="M937,553L965,633L1072,479Z" fill="#3abad5" stroke="#3abad5"/><path d="M1072,479L965,633L1181,677Z" fill="#2dadd4" stroke="#2dadd4"/><path d="M1072,479L1181,677L1312,505Z" fill="#2cabd4" stroke="#2cabd4"/><path d="M1312,505L1181,677L1243,715Z" fill="#2196ce" stroke="#2196ce"/><path d="M1312,505L1243,715L1380,667Z" fill="#2290cc" stroke="#2290cc"/><path d="M1312,505L1380,667L1440,534Z" fill="#2a95cb" stroke="#2a95cb"/><path d="M1440,534L1380,667L1528,560Z" fill="#278ac7" stroke="#278ac7"/><path d="M1528,560L1380,667L1545,678Z" fill="#217cc1" stroke="#217cc1"/><path d="M1528,560L1545,678L1753,674Z" fill="#1c6fb8" stroke="#1c6fb8"/><path d="M1528,560L1753,674L1682,468Z" fill="#2178b8" stroke="#2178b8"/><path d="M1682,468L1753,674L1828,648Z" fill="#1769b0" stroke="#1769b0"/><path d="M1682,468L1828,648L1846,475Z" fill="#2171ae" stroke="#2171ae"/><path d="M1846,475L1828,648L2004,513Z" fill="#1e63a6" stroke="#1e63a6"/><path d="M2004,513L1828,648L1972,662Z" fill="#1358a2" stroke="#1358a2"/><path d="M2004,513L1972,662L2081,873Z" fill="#134693" stroke="#134693"/><path d="M-25,683L-74,770L88,885Z" fill="#93aeca" stroke="#93aeca"/><path d="M-25,683L88,885L104,638Z" fill="#92b8cd" stroke="#92b8cd"/><path d="M104,638L88,885L215,870Z" fill="#8ea7bb" stroke="#8ea7bb"/><path d="M104,638L215,870L181,625Z" fill="#8dbcc6" stroke="#8dbcc6"/><path d="M181,625L215,870L373,675Z" fill="#89b8bf" stroke="#89b8bf"/><path d="M373,675L215,870L359,882Z" fill="#83a1b1" stroke="#83a1b1"/><path d="M373,675L359,882L557,774Z" fill="#7ba5b7" stroke="#7ba5b7"/><path d="M373,675L557,774L482,648Z" fill="#77b7c3" stroke="#77b7c3"/><path d="M482,648L557,774L659,622Z" fill="#6ab6c7" stroke="#6ab6c7"/><path d="M659,622L557,774L631,843Z" fill="#63a3bf" stroke="#63a3bf"/><path d="M659,622L631,843L798,681Z" fill="#57a6c4" stroke="#57a6c4"/><path d="M798,681L631,843L806,814Z" fill="#5094bb" stroke="#5094bb"/><path d="M798,681L806,814L994,820Z" fill="#4090bf" stroke="#4090bf"/><path d="M798,681L994,820L965,633Z" fill="#3a9cc8" stroke="#3a9cc8"/><path d="M965,633L994,820L1181,677Z" fill="#2e94c9" stroke="#2e94c9"/><path d="M1181,677L994,820L1174,852Z" fill="#287cbd" stroke="#287cbd"/><path d="M1181,677L1174,852L1240,789Z" fill="#2278be" stroke="#2278be"/><path d="M1181,677L1240,789L1243,715Z" fill="#2381c5" stroke="#2381c5"/><path d="M1243,715L1240,789L1380,667Z" fill="#237bc2" stroke="#237bc2"/><path d="M1380,667L1240,789L1372,856Z" fill="#246bb8" stroke="#246bb8"/><path d="M1380,667L1372,856L1545,678Z" fill="#256ab9" stroke="#256ab9"/><path d="M1545,678L1372,856L1610,877Z" fill="#2150a8" stroke="#2150a8"/><path d="M1545,678L1610,877L1753,674Z" fill="#1c52a9" stroke="#1c52a9"/><path d="M1753,674L1610,877L1716,879Z" fill="#183b99" stroke="#183b99"/><path d="M1753,674L1716,879L1925,836Z" fill="#143493" stroke="#143493"/><path d="M1753,674L1925,836L1828,648Z" fill="#14439d" stroke="#14439d"/><path d="M1828,648L1925,836L1972,662Z" fill="#143e98" stroke="#143e98"/><path d="M1972,662L1925,836L2081,873Z" fill="#132c86" stroke="#132c86"/><path d="M-74,770L-102,981L88,885Z" fill="#9196bb" stroke="#9196bb"/><path d="M88,885L-102,981L107,988Z" fill="#8e83a9" stroke="#8e83a9"/><path d="M88,885L107,988L215,870Z" fill="#8b8ba7" stroke="#8b8ba7"/><path d="M215,870L107,988L243,980Z" fill="#89839d" stroke="#89839d"/><path d="M215,870L243,980L359,882Z" fill="#85899f" stroke="#85899f"/><path d="M359,882L243,980L363,1026Z" fill="#807b96" stroke="#807b96"/><path d="M359,882L363,1026L558,1034Z" fill="#777694" stroke="#777694"/><path d="M359,882L558,1034L557,774Z" fill="#7386a3" stroke="#7386a3"/><path d="M557,774L558,1034L631,843Z" fill="#6583a6" stroke="#6583a6"/><path d="M631,843L558,1034L663,1019Z" fill="#5f6e99" stroke="#5f6e99"/><path d="M631,843L663,1019L813,1003Z" fill="#526b9b" stroke="#526b9b"/><path d="M631,843L813,1003L806,814Z" fill="#4d79a8" stroke="#4d79a8"/><path d="M806,814L813,1003L982,963Z" fill="#3d6aa4" stroke="#3d6aa4"/><path d="M806,814L982,963L994,820Z" fill="#3676b0" stroke="#3676b0"/><path d="M994,820L982,963L1154,927Z" fill="#2b65a9" stroke="#2b65a9"/><path d="M994,820L1154,927L1174,852Z" fill="#2769af" stroke="#2769af"/><path d="M1174,852L1154,927L1323,1013Z" fill="#1f50a2" stroke="#1f50a2"/><path d="M1174,852L1323,1013L1372,856Z" fill="#204ea2" stroke="#204ea2"/><path d="M1174,852L1372,856L1240,789Z" fill="#2163b1" stroke="#2163b1"/><path d="M1372,856L1323,1013L1409,949Z" fill="#213e99" stroke="#213e99"/><path d="M1372,856L1409,949L1610,877Z" fill="#213f9b" stroke="#213f9b"/><path d="M1610,877L1409,949L1532,1031Z" fill="#1d2b8d" stroke="#1d2b8d"/><path d="M1610,877L1532,1031L1735,970Z" fill="#181e84" stroke="#181e84"/><path d="M1610,877L1735,970L1716,879Z" fill="#162488" stroke="#162488"/><path d="M1716,879L1735,970L1832,988Z" fill="#13137c" stroke="#13137c"/><path d="M1716,879L1832,988L1925,836Z" fill="#11187f" stroke="#11187f"/><path d="M1925,836L1832,988L1999,920Z" fill="#110d76" stroke="#110d76"/><path d="M1925,836L1999,920L2081,873Z" fill="#111776" stroke="#111776"/><path d="M2081,873L1999,920L2040,1132Z" fill="#0f0062" stroke="#0f0062"/><path d="M-102,981L-88,1070L19,1094Z" fill="#8d80a0" stroke="#8d80a0"/><path d="M-102,981L19,1094L107,988Z" fill="#8e809f" stroke="#8e809f"/><path d="M107,988L19,1094L175,1105Z" fill="#897e90" stroke="#897e90"/><path d="M107,988L175,1105L243,980Z" fill="#877d90" stroke="#877d90"/><path d="M243,980L175,1105L362,1078Z" fill="#837c86" stroke="#837c86"/><path d="M243,980L362,1078L363,1026Z" fill="#7e7a8b" stroke="#7e7a8b"/><path d="M363,1026L362,1078L544,1089Z" fill="#767785" stroke="#767785"/><path d="M363,1026L544,1089L558,1034Z" fill="#707488" stroke="#707488"/><path d="M558,1034L544,1089L641,1128Z" fill="#626f84" stroke="#626f84"/><path d="M558,1034L641,1128L663,1019Z" fill="#5c6d88" stroke="#5c6d88"/><path d="M663,1019L641,1128L845,1116Z" fill="#4d6785" stroke="#4d6785"/><path d="M663,1019L845,1116L813,1003Z" fill="#47648d" stroke="#47648d"/><path d="M813,1003L845,1116L932,1078Z" fill="#3b608b" stroke="#3b608b"/><path d="M813,1003L932,1078L982,963Z" fill="#365e95" stroke="#365e95"/><path d="M982,963L932,1078L1118,1105Z" fill="#2a5790" stroke="#2a5790"/><path d="M982,963L1118,1105L1154,927Z" fill="#265298" stroke="#265298"/><path d="M1154,927L1118,1105L1234,1126Z" fill="#1f4b8e" stroke="#1f4b8e"/><path d="M1154,927L1234,1126L1323,1013Z" fill="#1d4591" stroke="#1d4591"/><path d="M1323,1013L1234,1126L1468,1084Z" fill="#1d3a83" stroke="#1d3a83"/><path d="M1323,1013L1468,1084L1409,949Z" fill="#1f348a" stroke="#1f348a"/><path d="M1409,949L1468,1084L1532,1031Z" fill="#1e2c85" stroke="#1e2c85"/><path d="M1532,1031L1468,1084L1551,1175Z" fill="#1a2774" stroke="#1a2774"/><path d="M1532,1031L1551,1175L1716,1108Z" fill="#161f6c" stroke="#161f6c"/><path d="M1532,1031L1716,1108L1735,970Z" fill="#151874" stroke="#151874"/><path d="M1735,970L1716,1108L1832,988Z" fill="#110e6f" stroke="#110e6f"/><path d="M1832,988L1716,1108L1861,1176Z" fill="#0e0960" stroke="#0e0960"/><path d="M1832,988L1861,1176L2040,1132Z" fill="#0d0056" stroke="#0d0056"/><path d="M1832,988L2040,1132L1999,920Z" fill="#0f0061" stroke="#0f0061"/><path d="M175,1105L1551,1175L641,1128Z" fill="#43637e" stroke="#43637e"/><path d="M175,1105L641,1128L362,1078Z" fill="#77777e" stroke="#77777e"/><path d="M362,1078L641,1128L544,1089Z" fill="#6b7380" stroke="#6b7380"/><path d="M641,1128L1551,1175L845,1116Z" fill="#295780" stroke="#295780"/><path d="M845,1116L1551,1175L1234,1126Z" fill="#1b487e" stroke="#1b487e"/><path d="M845,1116L1234,1126L1118,1105Z" fill="#255383" stroke="#255383"/><path d="M845,1116L1118,1105L932,1078Z" fill="#2d5b87" stroke="#2d5b87"/><path d="M1234,1126L1551,1175L1468,1084Z" fill="#1d3275" stroke="#1d3275"/><path d="M1551,1175L1861,1176L1716,1108Z" fill="#10135c" stroke="#10135c"/></g></svg>